<svg width="70" height="70" viewBox="0 0 70 70" fill="none" xmlns="http://www.w3.org/2000/svg">
<path d="M59.3439 59.507V66.5C59.3438 67.3573 59.0291 68.1847 58.4594 68.8253C57.8898 69.4659 57.1048 69.8752 56.2534 69.9755L55.8439 70H13.8439C12.9157 70 12.0255 69.6313 11.3691 68.9749C10.7127 68.3185 10.3439 67.4283 10.3439 66.5V59.521C10.3439 58.5927 10.7127 57.7025 11.3691 57.0461C12.0255 56.3897 12.9157 56.021 13.8439 56.021L55.8439 56.007C56.7722 56.007 57.6624 56.3757 58.3188 57.0321C58.9752 57.6885 59.3439 58.5787 59.3439 59.507ZM34.8439 3.17531e-07C38.1764 -0.000634388 41.4398 0.950267 44.2504 2.74089C47.061 4.53151 49.3018 7.08739 50.7094 10.108L50.9194 10.5875L51.3954 10.556C55.2396 10.3821 59.0338 11.4801 62.191 13.68C65.3482 15.8799 67.6923 19.0591 68.8605 22.7255L69.0809 23.471C70.156 27.4393 69.7995 31.6594 68.0741 35.3911C66.3487 39.1229 63.3645 42.128 59.645 43.8795L59.3405 44.009V49.007C59.3405 49.9353 58.9717 50.8255 58.3153 51.4819C57.6589 52.1382 56.7687 52.507 55.8405 52.507L13.8404 52.521C12.9832 52.5209 12.1558 52.2062 11.5151 51.6365C10.8745 51.0668 10.4652 50.2819 10.3649 49.4305L10.3404 49.021V44.0055L9.90995 43.813C7.75624 42.7765 5.8377 41.3098 4.27261 39.5033C2.70753 37.6968 1.52908 35.5889 0.809947 33.3095L0.585947 32.529C-0.129342 29.8348 -0.190673 27.0087 0.407058 24.286C1.00479 21.5633 2.24429 19.0227 4.02236 16.8759C5.80043 14.7291 8.06563 13.038 10.6294 11.9436C13.1931 10.8492 15.9811 10.3831 18.7614 10.584L18.9924 10.087C20.3448 7.1947 22.4627 4.72751 25.1168 2.95258C27.7708 1.17766 30.8599 0.162665 34.0494 0.0175007L34.8439 3.17531e-07Z" fill="#EA6D27"/>
</svg>
