<svg width="64" height="71" viewBox="0 0 64 71" fill="none" xmlns="http://www.w3.org/2000/svg">
<path d="M58.6922 26.4688C56.0783 22.3733 52.5621 18.9301 48.4127 16.4028C51.7692 15.7028 52.4587 15.1358 52.8192 14.6528C52.9427 14.4962 53.0331 14.3162 53.0849 14.1237C53.1366 13.9311 53.1486 13.7301 53.1202 13.5328C52.8157 11.4573 49.9352 10.6138 43.1732 10.6138C40.1982 10.6138 37.2547 10.7923 35.5817 10.9183L36.2292 1.48925C36.2405 1.33094 36.22 1.17196 36.1689 1.02169C36.1178 0.871423 36.0372 0.732891 35.9317 0.614253C35.8261 0.495176 35.6976 0.398508 35.5539 0.329973C35.4102 0.261437 35.2543 0.222428 35.0952 0.215254L30.5872 0.00175354C30.4309 -0.00674209 30.2745 0.0156913 30.1268 0.0677681C29.9792 0.119845 29.8433 0.200541 29.7269 0.305234C29.6105 0.409927 29.5159 0.536558 29.4485 0.677873C29.3811 0.819187 29.3423 0.972407 29.3342 1.12875L28.7672 11.0653C26.35 10.928 23.9294 10.8568 21.5082 10.8518C13.3672 10.8518 11.7292 11.9018 11.1692 13.0463C11.067 13.2505 11.0138 13.4758 11.0138 13.7043C11.0138 13.9327 11.067 14.158 11.1692 14.3623C11.4457 14.9223 12.0197 15.5488 15.1627 16.4938C10.5318 19.3419 6.7079 23.3293 4.05606 28.0754C1.40421 32.8215 0.0128473 38.168 0.0147416 43.6048C-0.119812 47.4374 0.668352 51.2463 2.31289 54.7107C3.95742 58.1752 6.4102 61.1939 9.46474 63.5128C16.026 68.0481 23.8846 70.3258 31.8542 70.0018C39.8294 70.3229 47.6922 68.039 54.2542 63.4953C57.3088 61.1764 59.7616 58.1577 61.4061 54.6932C63.0506 51.2287 63.8388 47.4199 63.7042 43.5872C63.704 37.5193 61.9646 31.5786 58.6922 26.4688ZM32.3932 17.6208C32.1898 17.4728 31.9448 17.3931 31.6932 17.3931C31.4417 17.3931 31.1967 17.4728 30.9932 17.6208C27.2058 20.3729 23.2718 22.9176 19.2087 25.2438C20.5956 22.6599 22.1518 20.1707 23.8672 17.7923C23.9837 17.6286 24.0569 17.4381 24.0799 17.2386C24.1029 17.039 24.0751 16.8369 23.9989 16.651C23.9227 16.4651 23.8007 16.3015 23.6443 16.1755C23.4879 16.0495 23.3021 15.9651 23.1042 15.9303C20.1668 15.3813 17.2675 14.6448 14.4242 13.7253C16.7579 13.3196 19.1267 13.1519 21.4942 13.2248C25.6627 13.2248 29.7472 13.5223 29.7892 13.5258C29.9471 13.538 30.1058 13.5186 30.256 13.4687C30.4063 13.4188 30.545 13.3394 30.6642 13.2353C30.9026 13.0223 31.0483 12.7246 31.0702 12.4058L31.6512 2.45175L33.7512 2.55325L33.1037 12.1468C33.0904 12.3191 33.1149 12.4924 33.1753 12.6543C33.2357 12.8163 33.3308 12.9632 33.4537 13.0848C33.5776 13.2055 33.7263 13.2979 33.8895 13.3553C34.0528 13.4127 34.2265 13.4339 34.3987 13.4173C34.4407 13.4173 38.8402 13.0113 43.1662 13.0113C45.4102 12.922 47.6564 13.1172 49.8512 13.5923C47.0619 14.2895 44.2303 14.805 41.3742 15.1358C41.1693 15.1598 40.9741 15.2367 40.8078 15.359C40.6415 15.4813 40.5099 15.6447 40.4259 15.8332C40.3419 16.0217 40.3083 16.2288 40.3286 16.4342C40.3488 16.6396 40.4221 16.8362 40.5412 17.0048C42.4666 19.5784 44.0283 22.4049 45.1822 25.4048C40.657 23.2677 36.3702 20.6586 32.3932 17.6208Z" fill="#EA6D27"/>
</svg>
